<svg width="16" height="17" viewBox="0 0 16 17" fill="none" xmlns="http://www.w3.org/2000/svg">
<g clip-path="url(#clip0_186_166)">
<path d="M7.29313 7.79281C6.9025 8.18344 6.9025 8.81656 7.29313 9.20687C7.68344 9.5975 8.31688 9.5975 8.70719 9.20687C9.09781 8.81625 9.09781 8.18313 8.70719 7.79281C8.31656 7.4025 7.68344 7.4025 7.29313 7.79281ZM8 0.75C3.71969 0.75 0.25 4.21969 0.25 8.5C0.25 12.7803 3.71969 16.25 8 16.25C12.2803 16.25 15.75 12.7803 15.75 8.5C15.75 4.21969 12.2803 0.75 8 0.75ZM11.9419 5.37656L9.88031 9.8875C9.7806 10.1057 9.60565 10.2806 9.3875 10.3803L4.87687 12.4419C4.35656 12.6797 3.82031 12.1434 4.05813 11.6231L6.12 7.11219C6.21972 6.89404 6.39466 6.71909 6.61281 6.61938L11.1234 4.55781C11.6438 4.32031 12.1797 4.85625 11.9419 5.37656Z" fill="#353535"/>
</g>
<defs>
<clipPath id="clip0_186_166">
<rect width="16" height="16" fill="white" transform="translate(0 0.5)"/>
</clipPath>
</defs>
</svg>
