<svg width="16" height="17" viewBox="0 0 16 17" fill="none" xmlns="http://www.w3.org/2000/svg">
<g clip-path="url(#clip0_186_173)">
<path d="M9.49995 3.5C10.3281 3.5 11 2.82812 11 2C11 1.17188 10.3281 0.5 9.49995 0.5C8.67183 0.5 7.99995 1.17188 7.99995 2C7.99995 2.82812 8.67183 3.5 9.49995 3.5ZM12.4531 8.15938L11.725 7.79063L11.4218 6.87187C10.9625 5.47812 9.6812 4.50313 8.22808 4.5C7.10308 4.49688 6.4812 4.81562 5.31245 5.2875C4.63745 5.55937 4.08433 6.075 3.75933 6.73125L3.54995 7.15625C3.3062 7.65 3.50308 8.25 3.9937 8.49687C4.4812 8.74375 5.07495 8.54375 5.32183 8.05L5.5312 7.625C5.64058 7.40625 5.82183 7.23438 6.04683 7.14375L6.88433 6.80625L6.40933 8.70312C6.24683 9.35312 6.42183 10.0437 6.87495 10.5406L8.74683 12.5844C8.97183 12.8313 9.1312 13.1281 9.21245 13.45L9.78433 15.7406C9.9187 16.275 10.4625 16.6031 10.9968 16.4688C11.5312 16.3344 11.8593 15.7906 11.725 15.2563L11.0312 12.475C10.95 12.1531 10.7906 11.8531 10.5656 11.6094L9.1437 10.0562L9.6812 7.90938L9.85308 8.425C10.0187 8.92813 10.375 9.34375 10.8437 9.58125L11.5718 9.95C12.0593 10.1969 12.6531 9.99687 12.9 9.50313C13.1406 9.0125 12.9437 8.40625 12.4531 8.15938ZM5.29995 12.5562C5.19995 12.8094 5.04995 13.0375 4.8562 13.2281L3.2937 14.7937C2.90308 15.1844 2.90308 15.8188 3.2937 16.2094C3.68433 16.6 4.31558 16.6 4.7062 16.2094L6.56245 14.3531C6.75308 14.1625 6.90308 13.9344 7.0062 13.6812L7.42808 12.625C5.69995 10.7406 6.2187 11.3187 5.94683 10.9469L5.29995 12.5562Z" fill="#353535"/>
</g>
<defs>
<clipPath id="clip0_186_173">
<rect width="16" height="16" fill="white" transform="translate(0 0.5)"/>
</clipPath>
</defs>
</svg>
