<svg width="16" height="17" viewBox="0 0 16 17" fill="none" xmlns="http://www.w3.org/2000/svg">
<path d="M8 0.5C3.58065 0.5 0 4.08065 0 8.5C0 12.9194 3.58065 16.5 8 16.5C12.4194 16.5 16 12.9194 16 8.5C16 4.08065 12.4194 0.5 8 0.5ZM9.84194 11.7935L6.99677 9.72581C6.89677 9.65161 6.83871 9.53548 6.83871 9.4129V3.98387C6.83871 3.77097 7.0129 3.59677 7.22581 3.59677H8.77419C8.9871 3.59677 9.16129 3.77097 9.16129 3.98387V8.42581L11.2097 9.91613C11.3839 10.0419 11.4194 10.2839 11.2935 10.4581L10.3839 11.7097C10.2581 11.8806 10.0161 11.9194 9.84194 11.7935Z" fill="#353535"/>
</svg>
